# xmcd
#
# Track frame offsets: 
#        150
#        9463
#        25605
#        40472
#        51509
#        67446
#        78894
#        94780
#        109816
#        125089
#        137270
#        150007
#        163847
#        177843
#        194730
#        211665
#        228200
#        241535
#        259777
#        276763
#
# Disc length: 3913 seconds
#
# Revision: 0
# Processed by: cddbd v1.5.2PL0 Copyright (c) Steve Scherf et al.
# Submitted via: ExactAudioCopyFreeDBPlugin 1.0
#
DISCID=090f4714
DTITLE=Various Artist - Kaikkien aikojen rakkauslaulut cd1
DYEAR=2009
DGENRE=
TTITLE0=Eero ja Jussi and The boys - Kaikki rakkauteni
TTITLE1=Maarit - J‰‰telˆkes‰
TTITLE2=Fredi - Avaa syd‰mesi mulle
TTITLE3=Jouko ja Kosti - Muisto vain j‰‰
TTITLE4=Armi ja Danny - Tahdon olla sulle hell‰
TTITLE5=Kirka - P‰‰si rinnallein painuu
TTITLE6=Carola - Rakkauden j‰lkeen
TTITLE7=Olavi Virta - Hopeinen kuu
TTITLE8=Kai Hyttinen - Muistan kes‰n
TTITLE9=Tamara Lund - Sinun omasi
TTITLE10=Pasi Kaunisto - Sanat eiv‰t riit‰ kertomaan
TTITLE11=Seija Simola - Sulle silm‰ni annan
TTITLE12=Georg Ots - Moskovan valot
TTITLE13=Anki and Cumulus - Syyslaulu
TTITLE14=Katri Helena - Katson autiota hiekkarantaa
TTITLE15=Mikko Alatalo - Ihmisen ik‰v‰ toisen luo
TTITLE16=Virtuoso - Puhu hiljaa rakkaudesta
TTITLE17=Paula Koivuniemi - Aikuinen nainen
TTITLE18=Pentti Hietanen - Kertokaa se h‰nelle
TTITLE19=Pepe Willberg - Sinua, sinua rakastan
EXTD=
EXTT0=
EXTT1=
EXTT2=
EXTT3=
EXTT4=
EXTT5=
EXTT6=
EXTT7=
EXTT8=
EXTT9=
EXTT10=
EXTT11=
EXTT12=
EXTT13=
EXTT14=
EXTT15=
EXTT16=
EXTT17=
EXTT18=
EXTT19=
PLAYORDER=
